# xmcd
#
# Track frame offsets:
#	150
#	12582
#	22049
#	31083
#	49750
#	60711
#	70632
#	82057
#	103534
#	118497
#	128229
#	137194
#
# Disc length: 1937 seconds
# Revision: 0
# Processed by: cddbd v1.5.2PL0 Copyright (c) Steve Scherf et al.
# Submitted via: dBpowerAMP V12.0
#
DISCID=aa078f0c
DTITLE=Peterson Family - The Peterson Family
DYEAR=2008
DGENRE=Bluegrass
TTITLE0=He Ain't Never Donbe Me Nothin' But Good
TTITLE1=On The Sunny Side of Life
TTITLE2=Rise Up Lazarus
TTITLE3=White Train
TTITLE4=Uncle Pen
TTITLE5=New River Train
TTITLE6=Daniel Prayed
TTITLE7=Is Not This the Land of Beulah
TTITLE8=Man of Constant Sorrow
TTITLE9=Wild Blue Yonder
TTITLE10=Orange Blossom Special
TTITLE11=Do You Want To Go To Heaven
EXTD=
EXTT0=
EXTT1=
EXTT2=
EXTT3=
EXTT4=
EXTT5=
EXTT6=
EXTT7=
EXTT8=
EXTT9=
EXTT10=
EXTT11=
PLAYORDER=
